<?xml version="1.0" standalone="no"?>
<!DOCTYPE svg PUBLIC "-//W3C//DTD SVG 20010904//EN"
 "http://www.w3.org/TR/2001/REC-SVG-20010904/DTD/svg10.dtd">
<svg version="1.0" xmlns="http://www.w3.org/2000/svg"
 width="626.000000pt" height="640.000000pt" viewBox="0 0 626.000000 640.000000"
 preserveAspectRatio="xMidYMid meet">

<g transform="translate(0.000000,640.000000) scale(0.100000,-0.100000)"
fill="#000000" stroke="none">
<path d="M0 3200 l0 -3200 3130 0 3130 0 0 3200 0 3200 -3130 0 -3130 0 0
-3200z m1497 2276 c32 -13 85 -34 118 -46 126 -47 319 -143 459 -228 37 -23
72 -42 76 -42 5 0 10 -4 12 -8 2 -4 41 -34 88 -67 47 -32 105 -75 130 -94 24
-20 53 -43 64 -51 97 -76 321 -300 418 -419 17 -21 48 -29 48 -13 0 5 -8 17
-17 28 -60 67 -115 136 -111 140 11 10 106 14 360 15 286 0 358 -5 358 -27 0
-7 -5 -16 -10 -19 -17 -11 -110 -125 -110 -136 0 -21 28 -6 61 31 154 182 275
301 439 431 96 76 313 229 325 229 4 0 19 8 33 18 23 16 124 73 182 103 63 32
193 89 203 89 7 0 17 4 23 9 5 5 29 16 54 25 25 8 71 25 103 37 33 11 62 17
66 13 4 -5 18 -43 31 -84 12 -41 31 -100 41 -130 10 -30 19 -71 20 -90 2 -19
6 -39 9 -45 9 -14 28 -83 35 -125 8 -48 22 -125 33 -185 6 -27 13 -72 17 -100
3 -27 11 -81 17 -120 5 -38 12 -229 15 -422 4 -296 7 -353 19 -353 11 0 14 47
16 288 l3 287 69 -140 c38 -77 78 -160 88 -185 11 -25 24 -53 29 -62 5 -10 9
-27 9 -37 0 -11 5 -23 10 -26 6 -3 10 -15 10 -26 0 -10 4 -19 8 -19 4 0 14
-21 21 -47 8 -27 18 -55 22 -63 4 -8 15 -37 24 -65 9 -27 23 -63 30 -80 7 -16
16 -43 20 -60 7 -30 19 -64 36 -97 5 -10 9 -26 9 -35 0 -10 9 -45 20 -77 11
-33 20 -72 20 -88 0 -15 4 -28 9 -28 9 0 25 -49 41 -125 5 -22 13 -58 18 -80
47 -193 59 -255 92 -475 6 -36 17 -103 25 -150 7 -47 17 -123 20 -170 3 -47 8
-107 10 -135 2 -27 7 -124 11 -215 l6 -165 -38 -50 c-93 -120 -213 -236 -328
-315 -28 -19 -52 -38 -54 -42 -2 -5 -7 -8 -12 -8 -5 0 -43 -20 -84 -45 -42
-25 -81 -45 -86 -45 -5 0 -25 -9 -45 -20 -20 -11 -42 -20 -50 -20 -9 0 -23 -4
-33 -9 -55 -28 -147 -59 -212 -71 -25 -5 -65 -14 -90 -19 -66 -16 -257 -41
-306 -41 -36 0 -46 5 -75 39 -50 56 -100 117 -163 196 -111 140 -108 135 -77
135 11 0 22 4 25 9 3 4 20 11 37 15 17 3 47 13 67 22 20 9 46 20 57 24 47 19
179 86 199 100 11 9 28 19 36 22 61 23 330 263 330 295 0 19 -16 16 -63 -14
-60 -38 -268 -143 -284 -143 -7 0 -13 -4 -13 -10 0 -5 -6 -10 -13 -10 -7 0
-56 -18 -108 -41 -101 -43 -312 -117 -369 -130 -19 -4 -69 -16 -110 -27 -78
-21 -262 -59 -315 -64 l-30 -3 -3 98 c-2 86 -1 98 15 104 32 11 104 64 139
102 23 25 34 46 34 69 0 17 5 32 10 32 6 0 10 23 10 50 0 49 -1 50 -30 50 -23
0 -30 -4 -30 -20 0 -11 -4 -20 -10 -20 -5 0 -10 -13 -10 -30 0 -16 -4 -30 -10
-30 -5 0 -10 -7 -10 -15 0 -17 -63 -85 -79 -85 -6 0 -25 -9 -43 -20 -52 -31
-198 -23 -198 12 0 4 -8 8 -18 8 -10 0 -24 9 -32 20 -8 11 -22 20 -32 20 -10
0 -18 7 -18 15 0 25 -46 65 -75 65 -18 0 -25 -5 -25 -20 0 -11 -4 -20 -10 -20
-5 0 -10 -7 -10 -16 0 -8 -7 -22 -15 -30 -10 -10 -15 -11 -15 -3 0 6 -17 -7
-37 -29 -44 -47 -105 -72 -180 -72 -53 0 -133 25 -133 41 0 5 -9 9 -21 9 -11
0 -17 5 -14 10 3 6 1 10 -5 10 -16 0 -60 47 -60 65 0 8 -4 15 -10 15 -5 0 -10
9 -10 20 0 11 -4 20 -10 20 -6 0 -10 30 -10 70 0 69 -1 70 -26 70 -14 0 -32
-6 -40 -14 -16 -16 -19 -86 -4 -86 6 0 10 -18 10 -40 0 -22 5 -40 10 -40 6 0
10 -9 10 -20 0 -11 5 -20 10 -20 6 0 10 -10 10 -22 0 -29 78 -102 143 -134 44
-21 66 -25 148 -25 89 -1 102 2 159 30 35 17 81 49 103 71 21 22 42 40 46 40
3 0 20 -12 36 -26 40 -35 101 -68 153 -84 l42 -13 0 -97 0 -97 -37 -7 c-117
-19 -633 5 -733 34 -19 5 -49 10 -67 10 -17 0 -34 4 -37 9 -3 5 -23 11 -43 14
-36 5 -60 11 -163 38 -78 20 -304 90 -320 98 -8 4 -36 14 -62 22 -27 7 -48 17
-48 21 0 4 -9 8 -21 8 -11 0 -33 6 -47 13 -95 48 -159 77 -169 77 -6 0 -13 3
-15 8 -1 4 -34 23 -73 42 -38 19 -72 38 -75 41 -10 13 -75 49 -88 49 -21 0 22
-55 113 -144 82 -81 248 -197 365 -256 36 -17 73 -36 82 -41 10 -5 26 -9 36
-9 10 0 22 -4 28 -8 5 -5 29 -15 54 -22 25 -8 50 -18 57 -22 12 -10 -18 -54
-109 -160 -27 -30 -48 -58 -48 -62 0 -4 -11 -19 -25 -34 -14 -15 -40 -46 -58
-69 -18 -24 -43 -46 -56 -49 -26 -7 -238 12 -286 26 -16 5 -59 14 -95 20 -69
12 -124 27 -152 41 -10 5 -27 9 -38 9 -11 0 -20 5 -20 10 0 6 -8 10 -19 10
-44 0 -259 107 -385 193 -100 68 -283 244 -335 322 l-33 50 6 217 c3 119 11
252 16 295 6 43 15 114 20 158 13 102 38 266 51 328 5 26 13 68 18 95 5 26 17
79 26 117 9 39 23 102 31 140 8 39 28 111 44 160 16 50 34 110 40 135 24 94
108 344 139 415 10 22 24 61 32 88 7 26 17 47 21 47 4 0 8 6 8 14 0 22 53 145
156 363 14 29 29 55 35 58 5 4 9 -101 9 -269 0 -184 4 -277 11 -281 6 -4 12
-5 15 -3 2 3 6 160 8 349 4 354 17 497 65 719 5 25 14 70 21 100 50 243 124
490 147 490 6 0 38 -11 70 -24z m2043 -3890 c0 -89 -1 -94 -22 -100 -57 -15
-58 -14 -58 94 l0 100 40 0 40 0 0 -94z"/>
<path d="M4475 5312 c-55 -31 -189 -124 -245 -170 -81 -68 -245 -236 -282
-290 -17 -26 -35 -49 -39 -52 -7 -5 -28 -39 -74 -120 -14 -25 -39 -67 -55 -95
-35 -62 -36 -65 -5 -65 14 0 25 -4 25 -10 0 -16 14 -12 38 10 12 11 24 20 27
20 3 0 15 9 27 20 11 10 36 26 55 35 38 18 53 43 33 55 -10 6 -4 18 23 47 20
21 37 44 37 51 0 15 -62 16 -77 1 -6 -6 -20 -9 -32 -7 -19 3 -18 7 22 59 92
122 108 139 138 139 16 0 29 5 29 10 0 6 6 10 14 10 17 0 78 31 88 45 4 5 10
6 14 2 4 -3 -5 -21 -20 -39 -87 -109 -104 -134 -98 -140 8 -8 82 14 82 24 0 5
11 8 24 8 14 0 28 5 31 10 13 20 32 10 28 -14 -4 -20 -1 -25 22 -28 l27 -3
-31 -41 c-16 -23 -27 -45 -24 -48 4 -3 30 -6 60 -6 49 0 67 -10 43 -25 -15 -9
-12 -45 3 -45 7 0 23 7 35 16 13 9 26 13 30 9 3 -3 2 -9 -3 -13 -6 -4 -21 -28
-34 -54 -21 -39 -23 -49 -12 -62 15 -17 61 -21 76 -7 12 10 95 20 95 10 0 -3
-9 -14 -20 -24 -23 -21 -26 -35 -6 -35 17 0 126 106 126 122 0 5 -7 7 -16 4
-32 -12 -166 -37 -172 -32 -3 3 7 15 22 27 14 11 33 27 40 35 8 8 17 14 21 14
10 0 35 28 35 39 0 12 -36 15 -42 4 -6 -15 -79 -73 -91 -73 -7 0 -8 3 -2 8 18
13 46 72 40 82 -8 13 -45 13 -45 0 0 -5 -10 -10 -22 -10 -17 0 -19 3 -10 12 7
7 12 24 12 38 0 14 5 31 11 37 7 7 9 19 5 28 -5 14 -12 12 -52 -15 -25 -18
-47 -30 -49 -28 -2 2 12 21 30 43 38 44 33 67 -10 47 -29 -13 -32 -6 -8 20 26
29 4 38 -52 21 -27 -8 -60 -20 -72 -26 -13 -6 -26 -8 -29 -4 -7 7 81 128 102
140 15 9 19 47 5 47 -5 0 -29 -10 -53 -21 -23 -12 -54 -26 -68 -32 -14 -5 -33
-13 -42 -18 -40 -20 -38 -7 3 29 24 20 53 46 64 57 12 11 38 31 58 45 20 14
37 28 37 33 0 4 7 7 15 7 8 0 15 5 15 10 0 6 7 10 15 10 8 0 15 3 15 8 0 7 10
13 66 42 16 8 31 17 34 21 3 3 13 8 23 12 9 3 17 16 17 27 0 24 -6 24 -45 2z
m-515 -606 c0 -9 -90 -96 -99 -96 -21 0 -21 21 0 50 13 16 31 30 40 30 10 0
21 5 24 10 6 10 35 14 35 6z m-116 -141 c-27 -20 -51 -20 -34 0 7 8 22 15 33
15 20 0 20 0 1 -15z"/>
<path d="M1835 5290 c-3 -5 41 -55 99 -111 61 -59 107 -112 111 -128 8 -34 37
-91 47 -91 5 0 8 -7 8 -15 0 -19 -1 -19 -54 6 -49 24 -88 20 -66 -6 7 -9 11
-17 9 -19 -6 -6 -157 26 -235 49 -12 4 -25 2 -29 -4 -7 -12 34 -70 50 -70 14
-1 71 -51 58 -51 -5 0 -25 5 -42 11 -23 8 -36 8 -43 1 -13 -13 4 -32 52 -57
19 -10 37 -21 40 -24 3 -3 15 -12 28 -18 72 -41 102 -62 102 -75 0 -4 -30 -8
-67 -10 -72 -3 -86 -15 -54 -45 l21 -19 -35 -14 c-41 -16 -41 -33 1 -41 22 -4
13 -7 -36 -12 -36 -3 -90 -10 -120 -16 -30 -7 -76 -15 -103 -20 -89 -14 -75
-41 32 -59 48 -8 66 -29 29 -34 -15 -2 -24 -11 -26 -25 -3 -23 12 -31 23 -13
3 6 16 10 28 10 21 -1 21 -1 -3 -15 -14 -8 -32 -15 -40 -15 -26 -1 -66 -38
-55 -49 10 -10 40 1 137 50 10 5 26 9 35 9 21 0 47 36 33 45 -5 3 -11 1 -15
-5 -3 -5 -21 -10 -38 -10 l-32 0 34 18 c54 27 50 39 -18 53 -34 7 -61 17 -61
21 0 4 23 8 50 8 28 0 50 5 50 10 0 6 35 10 84 10 47 0 88 5 91 10 4 6 10 8
14 6 4 -3 13 -1 20 4 22 13 1 32 -31 28 -16 -3 -31 -1 -34 4 -3 4 3 8 13 8 10
0 25 4 33 10 12 7 12 12 -4 29 -11 12 -17 21 -15 22 2 1 31 6 64 13 39 7 61
16 62 26 3 14 -85 80 -107 80 -5 0 -10 4 -10 8 0 5 -17 17 -37 27 l-38 20 38
3 c48 4 47 21 -3 52 -22 14 -40 28 -40 32 0 3 -8 9 -17 12 -10 3 -4 3 12 0 17
-3 48 -8 70 -11 22 -3 44 -9 50 -14 15 -15 85 -11 85 5 0 15 46 11 56 -5 3 -5
14 -9 25 -9 10 0 19 -4 19 -8 0 -5 12 -15 28 -23 15 -8 36 -22 46 -31 11 -10
26 -18 33 -18 23 0 14 -24 -17 -45 -16 -11 -30 -23 -30 -27 0 -15 57 -36 105
-39 73 -5 117 -28 80 -43 -8 -3 -15 -15 -15 -26 0 -18 6 -20 63 -20 62 0 62 0
87 -40 24 -38 39 -48 53 -33 8 7 -12 40 -51 84 -66 73 -81 90 -147 164 -98
109 -513 525 -525 525 -5 0 -12 -4 -15 -10z m400 -411 c27 -26 47 -50 44 -53
-3 -3 -28 10 -57 29 -28 19 -56 35 -62 35 -5 0 -10 6 -10 14 0 7 -7 19 -15 26
-9 7 -13 15 -10 18 3 3 -1 15 -9 28 -26 39 -5 33 32 -9 20 -23 59 -62 87 -88z
m100 -117 c6 -4 16 -15 24 -24 12 -17 9 -18 -42 -18 -44 0 -55 3 -51 14 3 7
15 18 27 24 27 13 30 13 42 4z"/>
<path d="M2348 4557 c-21 -6 -38 -16 -38 -22 0 -14 57 -35 96 -35 17 0 34 -4
40 -9 17 -17 88 -31 99 -20 16 16 -18 36 -75 43 -54 7 -67 23 -23 28 14 2 28
9 31 16 5 15 -75 15 -130 -1z"/>
<path d="M4540 4480 c-22 -3 -36 -11 -38 -22 -3 -16 6 -17 105 -12 81 4 104 3
91 -6 -20 -12 -24 -40 -7 -40 21 0 89 55 86 70 -2 12 -21 15 -102 15 -55 0
-116 -2 -135 -5z"/>
<path d="M4668 4363 c-10 -2 -18 -13 -18 -22 0 -13 10 -20 38 -25 58 -9 82 -7
82 7 0 11 -68 49 -81 46 -2 -1 -12 -3 -21 -6z"/>
<path d="M2526 4353 c-10 -11 -7 -211 4 -218 6 -3 10 -19 10 -35 0 -38 18 -78
49 -112 31 -34 41 -35 69 -3 38 43 44 245 8 245 -20 0 -26 -23 -26 -108 0 -72
-11 -114 -25 -100 -13 13 -35 116 -41 188 -8 105 -28 163 -48 143z"/>
<path d="M4643 4293 c-7 -19 6 -31 40 -35 15 -2 27 -7 26 -13 0 -5 -5 -9 -9
-8 -15 4 -19 -26 -4 -38 13 -10 13 -14 -1 -29 -22 -25 -2 -35 36 -20 20 9 29
19 29 35 0 19 7 24 40 30 22 4 40 12 40 19 0 16 -43 36 -79 36 -15 0 -31 3
-35 7 -3 4 -22 12 -42 19 -30 10 -36 10 -41 -3z"/>
<path d="M3625 4261 c-8 -26 -5 -159 6 -196 4 -16 13 -50 19 -75 31 -124 93
-189 174 -181 62 5 86 84 86 276 0 146 -7 185 -35 185 -13 0 -15 -26 -16 -152
0 -84 -3 -162 -6 -173 -2 -11 -7 -32 -10 -48 -8 -40 -33 -50 -71 -27 -18 11
-32 27 -32 35 0 8 -4 15 -10 15 -5 0 -10 9 -10 19 0 11 -4 23 -10 26 -5 3 -10
19 -10 34 0 15 -4 31 -10 37 -5 5 -11 61 -12 124 -3 109 -4 115 -25 118 -14 2
-23 -3 -28 -17z"/>
<path d="M1550 4233 c-8 -2 -24 -8 -35 -12 -11 -5 -32 -13 -47 -20 -16 -6 -28
-17 -28 -25 0 -12 14 -14 78 -9 42 2 83 6 90 9 20 6 14 34 -8 34 -13 0 -18 5
-14 15 6 15 -7 18 -36 8z"/>
<path d="M4786 4133 c-8 -8 -13 -10 -46 -12 -13 -1 -20 -8 -20 -22 0 -18 4
-20 33 -14 17 4 36 11 42 16 5 5 17 9 27 9 10 0 18 7 18 15 0 16 -40 21 -54 8z"/>
<path d="M1270 3431 c0 -77 36 -171 76 -198 23 -15 26 -15 49 7 26 24 37 54
60 152 10 45 10 60 0 68 -20 17 -41 -11 -55 -75 -15 -73 -28 -101 -41 -88 -13
13 -39 110 -39 144 0 24 -16 39 -41 39 -5 0 -9 -22 -9 -49z"/>
<path d="M3660 3082 c-14 -5 -43 -34 -80 -78 -21 -26 -47 -82 -72 -156 -31
-93 -29 -332 3 -313 5 4 9 -8 9 -24 0 -17 5 -31 10 -31 6 0 10 -9 10 -20 0
-11 5 -20 10 -20 6 0 10 -8 10 -18 0 -10 9 -24 20 -32 11 -8 20 -18 20 -22 0
-11 38 -48 50 -48 6 0 10 -7 10 -16 0 -20 24 -44 44 -44 9 0 16 -4 16 -10 0
-5 9 -10 20 -10 11 0 20 -4 20 -10 0 -5 14 -10 30 -10 17 0 30 -4 30 -10 0 -6
27 -10 60 -10 33 0 60 -4 60 -10 0 -5 9 -10 20 -10 11 0 20 5 20 10 0 6 23 10
50 10 28 0 50 4 50 9 0 5 13 11 29 14 16 3 36 13 44 22 9 8 21 15 27 15 18 0
180 170 180 189 0 9 4 21 8 27 22 25 37 106 37 204 0 156 1 155 -92 169 -79
13 -299 81 -389 121 -27 12 -87 41 -134 63 -111 54 -112 55 -130 49z"/>
<path d="M2470 3023 c-63 -31 -125 -59 -137 -64 -13 -5 -33 -13 -45 -18 -103
-42 -327 -101 -385 -101 -57 0 -63 -15 -63 -152 1 -117 21 -208 63 -271 9 -14
17 -33 17 -42 0 -8 5 -15 10 -15 20 0 26 -5 82 -62 31 -32 64 -58 72 -58 9 0
16 -4 16 -10 0 -5 9 -10 20 -10 28 0 100 -23 100 -32 0 -13 58 -9 62 3 3 9 10
8 28 -1 18 -9 25 -10 28 -1 2 6 25 11 53 11 27 0 49 5 49 10 0 6 9 10 20 10
11 0 20 5 20 10 0 6 9 10 20 10 11 0 20 5 20 10 0 6 7 10 15 10 17 0 118 99
123 120 2 8 12 21 23 31 10 9 19 24 19 33 0 9 5 16 10 16 6 0 10 9 10 19 0 11
4 22 8 25 5 3 14 36 21 73 18 93 3 303 -20 303 -5 0 -9 9 -9 21 0 33 -107 180
-130 178 -3 0 -57 -25 -120 -56z"/>
<path d="M4652 2998 c-14 -14 -16 -114 -2 -123 6 -3 10 -22 10 -42 0 -42 14
-93 40 -143 53 -103 125 -83 144 40 11 67 9 181 -3 193 -25 25 -41 -15 -48
-118 -12 -204 -55 -141 -89 130 -9 68 -26 89 -52 63z"/>
<path d="M3276 2384 c-18 -13 -18 -15 3 -49 11 -20 21 -45 21 -56 0 -10 5 -19
10 -19 6 0 10 -9 10 -20 0 -11 5 -20 10 -20 6 0 10 -9 10 -20 0 -11 5 -20 10
-20 6 0 10 -7 10 -16 0 -20 24 -44 44 -44 24 0 21 52 -4 70 -11 8 -20 22 -20
32 0 10 -4 18 -10 18 -5 0 -10 14 -10 30 0 17 -4 30 -10 30 -5 0 -10 7 -10 16
0 8 -7 22 -15 31 -8 8 -13 18 -11 21 2 4 -2 12 -8 18 -9 8 -17 8 -30 -2z"/>
<path d="M2980 2350 c0 -16 3 -30 8 -30 8 0 32 -49 32 -67 0 -7 5 -13 10 -13
6 0 10 -9 10 -20 0 -11 5 -20 10 -20 6 0 10 -13 10 -30 0 -16 5 -30 10 -30 6
0 10 -9 10 -20 0 -13 7 -20 20 -20 17 0 20 7 20 40 0 22 -4 40 -10 40 -5 0
-10 9 -10 20 0 11 -4 20 -10 20 -5 0 -10 9 -10 20 0 11 -4 20 -10 20 -5 0 -10
9 -10 20 0 11 -4 20 -10 20 -5 0 -10 12 -10 26 0 29 -21 54 -44 54 -11 0 -16
-9 -16 -30z"/>
<path d="M3133 2373 c-15 -6 -18 -53 -3 -53 6 0 10 -9 10 -20 0 -11 5 -20 10
-20 6 0 10 -9 10 -20 0 -11 5 -20 10 -20 6 0 10 -9 10 -20 0 -11 5 -20 10 -20
6 0 10 -9 10 -20 0 -11 5 -20 10 -20 6 0 10 -9 10 -20 0 -14 7 -20 21 -20 18
0 20 4 14 28 -3 15 -9 42 -12 60 -3 17 -9 32 -14 32 -5 0 -9 8 -9 18 0 10 -9
24 -20 32 -11 8 -20 22 -20 32 0 10 -4 18 -10 18 -5 0 -10 9 -10 20 0 20 -5
23 -27 13z"/>
<path d="M2833 2363 c-7 -2 -13 -18 -13 -34 0 -16 5 -29 13 -29 15 0 47 -55
47 -81 0 -10 5 -19 10 -19 6 0 10 -9 10 -20 0 -11 5 -20 10 -20 6 0 10 -9 10
-20 0 -13 7 -20 20 -20 17 0 20 7 20 40 0 22 -4 40 -10 40 -5 0 -10 9 -10 20
0 11 -4 20 -10 20 -5 0 -10 7 -10 16 0 8 -7 22 -15 30 -8 9 -18 27 -22 42 -8
36 -23 46 -50 35z"/>
<path d="M1849 2143 c-11 -13 -11 -17 -1 -20 6 -3 12 -13 12 -24 0 -10 5 -19
10 -19 6 0 10 -9 10 -20 0 -11 5 -20 10 -20 6 0 10 -9 10 -20 0 -11 4 -20 8
-20 5 0 17 -18 27 -40 14 -30 24 -40 42 -40 12 0 23 5 23 10 0 6 -4 10 -10 10
-5 0 -10 9 -10 20 0 11 -4 20 -10 20 -5 0 -10 6 -10 13 0 18 -24 67 -32 67 -5
0 -8 9 -8 20 0 11 -4 20 -10 20 -5 0 -10 7 -10 16 0 14 -22 44 -33 44 -3 0
-11 -7 -18 -17z"/>
<path d="M2000 2130 c0 -16 5 -30 10 -30 6 0 10 -8 10 -18 0 -10 9 -24 20 -32
11 -8 20 -22 20 -32 0 -10 5 -18 10 -18 6 0 10 -9 10 -20 0 -24 13 -26 31 -3
11 13 11 17 2 20 -7 3 -13 17 -13 32 0 15 -9 33 -20 41 -11 8 -20 20 -20 28 0
12 -43 62 -55 62 -3 0 -5 -13 -5 -30z"/>
<path d="M2140 2102 c0 -26 6 -42 20 -52 11 -8 20 -21 20 -29 0 -7 8 -21 18
-30 9 -9 23 -28 31 -43 17 -33 51 -38 51 -8 0 11 -4 20 -10 20 -5 0 -10 9 -10
20 0 11 -4 20 -10 20 -5 0 -10 12 -10 26 0 16 -12 37 -30 54 -16 15 -30 35
-30 44 0 9 -8 16 -20 16 -16 0 -20 -7 -20 -38z"/>
<path d="M4217 2126 c-8 -21 4 -59 25 -77 10 -9 18 -23 18 -30 0 -8 9 -21 20
-29 11 -8 20 -19 20 -25 0 -18 47 -65 64 -65 11 0 15 5 12 13 -3 6 -9 20 -12
30 -4 9 -10 17 -15 17 -5 0 -9 8 -9 18 0 10 -9 24 -20 32 -11 8 -20 21 -20 30
0 9 -9 22 -20 30 -11 8 -20 20 -20 28 0 13 -23 42 -33 42 -3 0 -7 -6 -10 -14z"/>
<path d="M3900 2090 c0 -5 5 -10 10 -10 6 0 10 -9 10 -20 0 -11 4 -20 8 -20 5
0 15 -12 23 -27 8 -16 22 -35 31 -44 10 -9 18 -24 18 -33 0 -10 9 -16 25 -16
23 0 25 3 19 28 -4 15 -15 34 -26 43 -10 9 -18 23 -18 30 0 8 -9 21 -20 29
-11 8 -20 22 -20 32 0 13 -8 18 -30 18 -16 0 -30 -4 -30 -10z"/>
<path d="M4096 2084 c-7 -17 16 -66 45 -97 10 -12 19 -27 19 -34 0 -7 3 -13 8
-13 4 0 13 -13 20 -29 16 -37 52 -49 52 -17 0 12 -9 28 -20 36 -11 8 -20 22
-20 32 0 10 -4 18 -10 18 -5 0 -10 8 -10 18 0 10 -9 24 -20 32 -11 8 -20 20
-20 28 0 13 -23 42 -33 42 -3 0 -8 -7 -11 -16z"/>
</g>
</svg>
